<svg width="77" height="23" fill="none" xmlns="http://www.w3.org/2000/svg"><rect width="77" height="23" rx="4" fill="#fff"/><path fill-rule="evenodd" clip-rule="evenodd" d="M13.334 12.5c0-.367.298-.666.666-.666h4a.667.667 0 010 1.333h-4a.667.667 0 01-.666-.666zm0 2.5c0-.367.298-.666.666-.666h2a.667.667 0 010 1.333h-2a.667.667 0 01-.666-.666z" fill="#424551"/><path fill-rule="evenodd" clip-rule="evenodd" d="M14.029 4.53a.667.667 0 01.471-.196H19a2.667 2.667 0 012.667 2.667v9A2.667 2.667 0 0119 18.667h-6a2.667 2.667 0 01-2.666-2.666V8.5c0-.177.07-.347.195-.472l3.5-3.5zm.305 1.58v2.224H12.11l2.224-2.224zm-2.667 3.557v6.334c0 .736.597 1.333 1.333 1.333h6c.737 0 1.334-.597 1.334-1.333V7c0-.737-.597-1.334-1.334-1.334h-3.333V9a.667.667 0 01-.667.666h-3.333z" fill="#424551"/><path d="M34.608 13.276l-1.575-4.081a8.227 8.227 0 01-.294-.938 7.622 7.622 0 01-.301.945l-1.575 4.074h3.745zM37.436 17h-1.05a.452.452 0 01-.294-.091.56.56 0 01-.168-.231l-.938-2.422h-4.501l-.938 2.422a.492.492 0 01-.161.224.447.447 0 01-.294.098h-1.05l4.011-10.031h1.372L37.436 17zm2.181-5.67c.224-.485.5-.863.826-1.134.327-.275.726-.413 1.197-.413.15 0 .292.016.427.049.14.033.264.084.371.154l-.09.931c-.029.117-.099.175-.21.175-.066 0-.162-.014-.288-.042a1.976 1.976 0 00-.427-.042c-.224 0-.424.033-.602.098a1.417 1.417 0 00-.469.294 2.078 2.078 0 00-.37.476 4.138 4.138 0 00-.295.644V17h-1.253V9.909h.714c.136 0 .229.026.28.077.052.051.087.14.105.266l.084 1.078zM50.114 17h-1.246v-6.048h-3.654v4.256c0 .299.072.52.217.665a.758.758 0 00.56.217 1.02 1.02 0 00.588-.168c.07-.042.128-.08.175-.112.051-.037.096-.056.133-.056.065 0 .123.04.175.119l.364.595c-.215.2-.474.36-.777.476a2.688 2.688 0 01-.938.168c-.56 0-.992-.156-1.295-.469-.299-.313-.448-.763-.448-1.351v-4.34h-.854a.289.289 0 01-.19-.063c-.05-.047-.076-.117-.076-.21v-.497l1.162-.154.287-2.184a.297.297 0 01.09-.168.28.28 0 01.197-.07h.63v2.443h4.9V17zm.308-9.366a.866.866 0 01-.273.616.9.9 0 01-.28.189.851.851 0 01-.343.07.85.85 0 01-.616-.259.85.85 0 01-.259-.616.85.85 0 01.07-.343.876.876 0 01.189-.287c.08-.084.17-.15.273-.196a.85.85 0 01.343-.07.851.851 0 01.623.266c.084.08.15.175.196.287a.785.785 0 01.077.343zm6.674 3.535a.555.555 0 01-.112.119.251.251 0 01-.154.042.426.426 0 01-.231-.084 3.191 3.191 0 00-.315-.196 2.228 2.228 0 00-.455-.189 2.052 2.052 0 00-.658-.091c-.35 0-.658.063-.924.189-.266.121-.49.299-.672.532a2.51 2.51 0 00-.406.847 4.31 4.31 0 00-.133 1.113c0 .43.049.812.147 1.148.098.331.236.611.413.84.182.224.399.397.65.518.258.117.544.175.862.175.303 0 .553-.035.749-.105a2.21 2.21 0 00.483-.245c.13-.089.238-.168.322-.238a.407.407 0 01.259-.112c.102 0 .182.04.238.119l.35.455a2.483 2.483 0 01-.525.49c-.196.135-.409.25-.637.343a3.51 3.51 0 01-.707.196 4.52 4.52 0 01-.756.063c-.444 0-.856-.082-1.24-.245a2.845 2.845 0 01-.986-.707c-.28-.313-.5-.695-.658-1.148a4.665 4.665 0 01-.238-1.547c0-.527.072-1.015.217-1.463.15-.448.364-.833.644-1.155a2.948 2.948 0 011.043-.763c.415-.182.891-.273 1.428-.273.5 0 .938.082 1.316.245.383.159.72.385 1.015.679l-.33.448zm3.038-4.48V17h-1.246V6.689h1.246zm6.767 5.992c0-.29-.042-.553-.126-.791a1.679 1.679 0 00-.357-.623 1.507 1.507 0 00-.567-.406 1.886 1.886 0 00-.763-.147c-.597 0-1.071.175-1.421.525-.345.345-.56.826-.644 1.442h3.878zm1.008 3.325a2.42 2.42 0 01-.553.49 3.531 3.531 0 01-.693.336 4.086 4.086 0 01-.756.196 4.41 4.41 0 01-.777.07 3.68 3.68 0 01-1.358-.245 3.075 3.075 0 01-1.071-.728 3.405 3.405 0 01-.7-1.19c-.168-.471-.252-1.013-.252-1.624 0-.495.075-.957.224-1.386.154-.43.373-.8.658-1.113a2.952 2.952 0 011.043-.742c.41-.182.873-.273 1.386-.273.425 0 .817.072 1.176.217.364.14.677.345.938.616.266.266.474.597.623.994.15.392.224.84.224 1.344 0 .196-.021.327-.063.392-.042.065-.121.098-.238.098h-4.739c.014.448.075.838.182 1.169.112.331.266.609.462.833.196.22.43.385.7.497.27.107.574.161.91.161.313 0 .581-.035.805-.105a4.042 4.042 0 00.994-.469.548.548 0 01.287-.112c.103 0 .182.04.238.119l.35.455z" fill="#424551"/></svg>