<?xml version="1.0" encoding="utf-8"?>
<!-- Generator: Adobe Illustrator 24.2.3, SVG Export Plug-In . SVG Version: 6.00 Build 0)  -->
<svg version="1.1" id="Слой_1" xmlns="http://www.w3.org/2000/svg" xmlns:xlink="http://www.w3.org/1999/xlink" x="0px" y="0px"
	 viewBox="0 0 825 640" style="enable-background:new 0 0 825 640;" xml:space="preserve">
<style type="text/css">
	.st0{fill:none;}
	.st1{fill:none;stroke:#E5E8ED;}
</style>
<g>
	<path class="st0" d="M4.7,0h815.6c2.6,0,4.7,2.3,4.7,5.1v629.8c0,2.8-2.1,5.1-4.7,5.1H4.7c-2.6,0-4.7-2.3-4.7-5.1V5.1
		C0,2.3,2.1,0,4.7,0z"/>
	<path class="st1" d="M4.7,0.6h815.6c2.3,0,4.1,2,4.1,4.5v629.8c0,2.5-1.8,4.5-4.1,4.5H4.7c-2.3,0-4.1-2-4.1-4.5V5.1
		C0.6,2.6,2.4,0.6,4.7,0.6z"/>
</g>
</svg>
