<svg width="143" height="105" fill="none" xmlns="http://www.w3.org/2000/svg"><path d="M4.08 30.86c0 1.165-.874 2.038-2.04 2.038S0 32.025 0 30.86c0-1.164.874-2.038 2.04-2.038s2.04.97 2.04 2.038zm17.39 0c0 1.165-.875 2.038-2.04 2.038-1.166 0-2.04-.873-2.04-2.038 0-1.164.873-2.038 2.04-2.038 1.068 0 2.04.97 2.04 2.038zm17.292 0c0 1.165-.874 2.038-2.04 2.038s-2.04-.873-2.04-2.038c0-1.164.874-2.038 2.04-2.038s2.04.97 2.04 2.038zm17.389 0c0 1.165-.874 2.038-2.04 2.038s-2.04-.873-2.04-2.038c0-1.164.874-2.038 2.04-2.038s2.04.97 2.04 2.038zm17.389 0c0 1.165-.874 2.038-2.04 2.038s-2.04-.873-2.04-2.038c0-1.164.874-2.038 2.04-2.038 1.069 0 2.04.97 2.04 2.038zm17.39 0c0 1.165-.875 2.038-2.04 2.038-1.167 0-2.04-.873-2.04-2.038 0-1.164.873-2.038 2.04-2.038 1.165 0 2.04.97 2.04 2.038zm17.292 0c0 1.165-.875 2.038-2.04 2.038-1.166 0-2.04-.873-2.04-2.038 0-1.164.874-2.038 2.04-2.038 1.165 0 2.04.97 2.04 2.038zm17.389 0c0 1.165-.874 2.038-2.04 2.038s-2.04-.873-2.04-2.038c0-1.164.874-2.038 2.04-2.038s2.04.97 2.04 2.038zm17.389 0c0 1.165-.874 2.038-2.04 2.038s-2.04-.873-2.04-2.038c0-1.164.874-2.038 2.04-2.038 1.069 0 2.04.97 2.04 2.038zM4.08 45.32c0 1.164-.874 2.037-2.04 2.037S0 46.484 0 45.319c0-1.164.874-2.038 2.04-2.038s2.04.874 2.04 2.038zm17.39 0c0 1.164-.875 2.037-2.04 2.037-1.166 0-2.04-.873-2.04-2.038 0-1.164.873-2.038 2.04-2.038 1.068 0 2.04.874 2.04 2.038zm17.292 0c0 1.164-.874 2.037-2.04 2.037s-2.04-.873-2.04-2.038c0-1.164.874-2.038 2.04-2.038s2.04.874 2.04 2.038zm17.389 0c0 1.164-.874 2.037-2.04 2.037s-2.04-.873-2.04-2.038c0-1.164.874-2.038 2.04-2.038s2.04.874 2.04 2.038zm17.389 0c0 1.164-.874 2.037-2.04 2.037s-2.04-.873-2.04-2.038c0-1.164.874-2.038 2.04-2.038 1.069 0 2.04.874 2.04 2.038zm17.39 0c0 1.164-.875 2.037-2.04 2.037-1.167 0-2.04-.873-2.04-2.038 0-1.164.873-2.038 2.04-2.038 1.165 0 2.04.874 2.04 2.038zm17.292 0c0 1.164-.875 2.037-2.04 2.037-1.166 0-2.04-.873-2.04-2.038 0-1.164.874-2.038 2.04-2.038 1.165 0 2.04.874 2.04 2.038zm17.389 0c0 1.164-.874 2.037-2.04 2.037s-2.04-.873-2.04-2.038c0-1.164.874-2.038 2.04-2.038s2.04.874 2.04 2.038zm17.389 0c0 1.164-.874 2.037-2.04 2.037s-2.04-.873-2.04-2.038c0-1.164.874-2.038 2.04-2.038 1.069 0 2.04.874 2.04 2.038zM4.08 2.038c0 1.164-.874 2.038-2.04 2.038S0 3.202 0 2.038C0 .873.874 0 2.04 0s2.04.873 2.04 2.038zm17.39 0c0 1.164-.875 2.038-2.04 2.038-1.166 0-2.04-.874-2.04-2.038C17.39.873 18.262 0 19.43 0c1.068 0 2.04.873 2.04 2.038zm17.292 0c0 1.164-.874 2.038-2.04 2.038s-2.04-.874-2.04-2.038c0-1.165.971-2.038 2.04-2.038 1.166 0 2.04.873 2.04 2.038zm17.389 0c0 1.164-.874 2.038-2.04 2.038s-2.04-.874-2.04-2.038C52.07.873 53.042 0 54.11 0s2.04.873 2.04 2.038zm17.389 0c0 1.164-.874 2.038-2.04 2.038s-2.04-.874-2.04-2.038C69.46.873 70.334 0 71.5 0c1.069 0 2.04.873 2.04 2.038zm17.39 0c0 1.164-.875 2.038-2.04 2.038-1.167 0-2.04-.874-2.04-2.038C86.85.873 87.722 0 88.89 0c1.165 0 2.04.873 2.04 2.038zm17.292 0c0 1.164-.875 2.038-2.04 2.038-1.166 0-2.04-.874-2.04-2.038 0-1.165.874-2.038 2.04-2.038 1.165 0 2.04.873 2.04 2.038zm17.389 0c0 1.164-.874 2.038-2.04 2.038s-2.04-.874-2.04-2.038c0-1.165.874-2.038 2.04-2.038s2.04.873 2.04 2.038zm17.389 0c0 1.164-.874 2.038-2.04 2.038s-2.04-.874-2.04-2.038c0-1.165.874-2.038 2.04-2.038 1.069 0 2.04.873 2.04 2.038zM4.08 16.497c0 1.164-.874 2.038-2.04 2.038S0 17.565 0 16.497c0-1.165.874-2.038 2.04-2.038s2.04.873 2.04 2.038zm17.39 0c0 1.164-.875 2.038-2.04 2.038-1.166 0-2.04-.874-2.04-2.038 0-1.165.873-2.038 2.04-2.038 1.068 0 2.04.873 2.04 2.038zm17.292 0c0 1.164-.874 2.038-2.04 2.038s-2.04-.874-2.04-2.038c0-1.165.874-2.038 2.04-2.038s2.04.873 2.04 2.038zm17.389 0c0 1.164-.874 2.038-2.04 2.038s-2.04-.874-2.04-2.038c0-1.165.874-2.038 2.04-2.038s2.04.873 2.04 2.038zm17.389 0c0 1.164-.874 2.038-2.04 2.038s-2.04-.874-2.04-2.038c0-1.165.874-2.038 2.04-2.038 1.069 0 2.04.873 2.04 2.038zm17.39 0c0 1.164-.875 2.038-2.04 2.038-1.167 0-2.04-.874-2.04-2.038 0-1.165.873-2.038 2.04-2.038 1.165 0 2.04.873 2.04 2.038zm17.292 0c0 1.164-.875 2.038-2.04 2.038-1.166 0-2.04-.874-2.04-2.038 0-1.165.874-2.038 2.04-2.038 1.165 0 2.04.873 2.04 2.038zm17.389 0c0 1.164-.874 2.038-2.04 2.038s-2.04-.874-2.04-2.038c0-1.165.874-2.038 2.04-2.038s2.04.873 2.04 2.038zm17.389 0c0 1.164-.874 2.038-2.04 2.038s-2.04-.874-2.04-2.038c0-1.165.874-2.038 2.04-2.038 1.069 0 2.04.873 2.04 2.038zM4.08 59.68c0 1.165-.874 2.038-2.04 2.038S0 60.845 0 59.68c0-1.164.874-2.037 2.04-2.037s2.04.97 2.04 2.038zm17.39 0c0 1.165-.875 2.038-2.04 2.038-1.166 0-2.04-.873-2.04-2.038 0-1.164.873-2.037 2.04-2.037 1.068 0 2.04.97 2.04 2.038zm17.292 0c0 1.165-.874 2.038-2.04 2.038s-2.04-.873-2.04-2.038c0-1.164.874-2.037 2.04-2.037s2.04.97 2.04 2.038zm17.389 0c0 1.165-.874 2.038-2.04 2.038s-2.04-.873-2.04-2.038c0-1.164.874-2.037 2.04-2.037s2.04.97 2.04 2.038zm17.389 0c0 1.165-.874 2.038-2.04 2.038s-2.04-.873-2.04-2.038c0-1.164.874-2.037 2.04-2.037 1.069 0 2.04.97 2.04 2.038zm17.39 0c0 1.165-.875 2.038-2.04 2.038-1.167 0-2.04-.873-2.04-2.038 0-1.164.873-2.037 2.04-2.037 1.165 0 2.04.97 2.04 2.038zm17.292 0c0 1.165-.875 2.038-2.04 2.038-1.166 0-2.04-.873-2.04-2.038 0-1.164.874-2.037 2.04-2.037 1.165 0 2.04.97 2.04 2.038zm17.389 0c0 1.165-.874 2.038-2.04 2.038s-2.04-.873-2.04-2.038c0-1.164.874-2.037 2.04-2.037s2.04.97 2.04 2.038zm17.389 0c0 1.165-.874 2.038-2.04 2.038s-2.04-.873-2.04-2.038c0-1.164.874-2.037 2.04-2.037 1.069 0 2.04.97 2.04 2.038zM4.08 74.14c0 1.164-.874 2.037-2.04 2.037S0 75.304 0 74.14s.874-2.037 2.04-2.037 2.04.873 2.04 2.037zm17.39 0c0 1.164-.875 2.037-2.04 2.037-1.166 0-2.04-.873-2.04-2.038 0-1.164.873-2.037 2.04-2.037 1.068 0 2.04.873 2.04 2.037zm17.292 0c0 1.164-.874 2.037-2.04 2.037s-2.04-.873-2.04-2.038c0-1.164.874-2.037 2.04-2.037s2.04.873 2.04 2.037zm15.348 2.037a2.039 2.039 0 10-2.04-2.038 2.04 2.04 0 002.04 2.038zm19.43-2.037c0 1.164-.874 2.037-2.04 2.037s-2.04-.873-2.04-2.038c0-1.164.874-2.037 2.04-2.037 1.069 0 2.04.873 2.04 2.037zm17.39 0c0 1.164-.875 2.037-2.04 2.037-1.167 0-2.04-.873-2.04-2.038 0-1.164.873-2.037 2.04-2.037 1.165 0 2.04.873 2.04 2.037zm17.292 0c0 1.164-.875 2.037-2.04 2.037-1.166 0-2.04-.873-2.04-2.038 0-1.164.874-2.037 2.04-2.037 1.165 0 2.04.873 2.04 2.037zm15.349 2.037a2.039 2.039 0 100-4.075 2.039 2.039 0 100 4.075zM143 74.14c0 1.164-.874 2.037-2.04 2.037s-2.04-.873-2.04-2.038c0-1.164.874-2.037 2.04-2.037 1.069 0 2.04.873 2.04 2.037zM4.08 88.6c0 1.165-.874 2.038-2.04 2.038S0 89.765 0 88.6c0-1.164.874-2.037 2.04-2.037s2.04.873 2.04 2.037zm17.39 0c0 1.165-.875 2.038-2.04 2.038-1.166 0-2.04-.873-2.04-2.038 0-1.164.873-2.037 2.04-2.037 1.068 0 2.04.873 2.04 2.037zm17.292 0c0 1.165-.874 2.038-2.04 2.038s-2.04-.873-2.04-2.038c0-1.164.874-2.037 2.04-2.037s2.04.873 2.04 2.037zm17.389 0c0 1.165-.874 2.038-2.04 2.038s-2.04-.873-2.04-2.038c0-1.164.874-2.037 2.04-2.037s2.04.873 2.04 2.037zm17.389 0c0 1.165-.874 2.038-2.04 2.038s-2.04-.873-2.04-2.038c0-1.164.874-2.037 2.04-2.037 1.069 0 2.04.873 2.04 2.037zm17.39 0c0 1.165-.875 2.038-2.04 2.038-1.167 0-2.04-.873-2.04-2.038 0-1.164.873-2.037 2.04-2.037 1.165 0 2.04.873 2.04 2.037zm17.292 0c0 1.165-.875 2.038-2.04 2.038-1.166 0-2.04-.873-2.04-2.038 0-1.164.874-2.037 2.04-2.037 1.165 0 2.04.873 2.04 2.037zm17.389 0c0 1.165-.874 2.038-2.04 2.038s-2.04-.873-2.04-2.038c0-1.164.874-2.037 2.04-2.037s2.04.873 2.04 2.037zm17.389 0c0 1.165-.874 2.038-2.04 2.038s-2.04-.873-2.04-2.038c0-1.164.874-2.037 2.04-2.037 1.069 0 2.04.873 2.04 2.037zM4.08 102.962c0 1.164-.874 2.038-2.04 2.038S0 104.126 0 102.962c0-1.165.874-2.038 2.04-2.038s2.04.97 2.04 2.038zm17.39 0c0 1.164-.875 2.038-2.04 2.038-1.166 0-2.04-.874-2.04-2.038 0-1.165.873-2.038 2.04-2.038 1.068 0 2.04.97 2.04 2.038zm17.292 0c0 1.164-.874 2.038-2.04 2.038s-2.04-.874-2.04-2.038c0-1.165.874-2.038 2.04-2.038s2.04.97 2.04 2.038zm17.389 0c0 1.164-.874 2.038-2.04 2.038s-2.04-.874-2.04-2.038c0-1.165.874-2.038 2.04-2.038s2.04.97 2.04 2.038zm17.389 0c0 1.164-.874 2.038-2.04 2.038s-2.04-.874-2.04-2.038c0-1.165.874-2.038 2.04-2.038 1.069 0 2.04.97 2.04 2.038zm17.39 0c0 1.164-.875 2.038-2.04 2.038-1.167 0-2.04-.874-2.04-2.038 0-1.165.873-2.038 2.04-2.038 1.165 0 2.04.97 2.04 2.038zm17.292 0c0 1.164-.875 2.038-2.04 2.038-1.166 0-2.04-.874-2.04-2.038 0-1.165.874-2.038 2.04-2.038 1.165 0 2.04.97 2.04 2.038zm17.389 0c0 1.164-.874 2.038-2.04 2.038s-2.04-.874-2.04-2.038c0-1.165.874-2.038 2.04-2.038s2.04.97 2.04 2.038zm17.389 0c0 1.164-.874 2.038-2.04 2.038s-2.04-.874-2.04-2.038c0-1.165.874-2.038 2.04-2.038 1.069 0 2.04.97 2.04 2.038z" fill="#fff"/></svg>