<svg width="105" height="225" fill="none" xmlns="http://www.w3.org/2000/svg"><path d="M3.697 58.946c1.167.897 1.368 2.449.468 3.62-.9 1.17-2.45 1.376-3.618.48-1.167-.898-1.368-2.449-.468-3.62.9-1.171 2.548-1.302 3.618-.48zm13.425-17.469c1.168.897 1.368 2.448.468 3.619-.9 1.171-2.45 1.377-3.618.48-1.167-.897-1.367-2.449-.467-3.62.9-1.17 2.547-1.302 3.617-.48zm13.426-17.47c1.167.897 1.368 2.448.468 3.62-.9 1.17-2.451 1.376-3.618.479-1.168-.897-1.368-2.448-.468-3.62.825-1.073 2.548-1.301 3.618-.48zM4.84 87.456c1.168.897 1.368 2.448.468 3.62-.9 1.17-2.45 1.376-3.617.48-1.168-.898-1.368-2.449-.468-3.62.9-1.171 2.45-1.377 3.618-.48zm13.35-17.372c1.168.897 1.369 2.448.469 3.62-.9 1.17-2.45 1.376-3.618.48-1.168-.898-1.368-2.45-.468-3.62.9-1.171 2.45-1.377 3.618-.48zm13.426-17.47c1.167.897 1.368 2.449.468 3.62-.9 1.17-2.45 1.376-3.618.48-1.167-.898-1.368-2.449-.468-3.62.9-1.171 2.45-1.377 3.618-.48zm13.425-17.469c1.168.897 1.368 2.448.468 3.619-.9 1.171-2.45 1.377-3.618.48-1.167-.897-1.367-2.449-.467-3.62.825-1.073 2.45-1.377 3.617-.48zM1.658 1.805c1.167.897 1.367 2.448.467 3.62-.9 1.17-2.45 1.376-3.617.479-1.168-.897-1.368-2.448-.468-3.62.825-1.073 2.45-1.376 3.618-.48zm1.068 28.608c1.167.897 1.368 2.448.468 3.62-.9 1.17-2.45 1.376-3.618.48-1.167-.898-1.368-2.449-.468-3.62.9-1.171 2.45-1.377 3.618-.48zm13.425-17.47c1.168.897 1.368 2.449.468 3.62-.9 1.17-2.45 1.377-3.618.48-1.167-.898-1.367-2.449-.467-3.62.824-1.073 2.45-1.377 3.617-.48zM5.812 115.99c1.168.897 1.368 2.448.468 3.62-.9 1.171-2.45 1.376-3.618.479-1.167-.897-1.367-2.448-.467-3.619.825-1.074 2.547-1.302 3.617-.48zm13.426-17.47c1.167.897 1.367 2.448.467 3.619-.9 1.171-2.45 1.377-3.617.48-1.168-.897-1.368-2.449-.468-3.62.9-1.17 2.548-1.302 3.618-.48zm13.35-17.373c1.167.897 1.368 2.449.468 3.62-.9 1.171-2.451 1.377-3.618.48-1.168-.897-1.368-2.449-.468-3.62.9-1.17 2.548-1.302 3.618-.48zm13.425-17.469c1.167.897 1.368 2.448.468 3.62-.9 1.17-2.45 1.376-3.618.479-1.167-.897-1.368-2.448-.468-3.62.9-1.17 2.548-1.301 3.618-.48zm13.425-17.47c1.168.897 1.368 2.448.468 3.62-.9 1.17-2.45 1.376-3.618.48-1.167-.898-1.367-2.45-.467-3.62.825-1.074 2.547-1.302 3.617-.48zM7.348 148.217a2.58 2.58 0 00-.467-3.619 2.58 2.58 0 00-3.618.479 2.581 2.581 0 00.468 3.62 2.58 2.58 0 003.617-.48zm12.958-21.089c1.167.897 1.368 2.448.468 3.619-.9 1.171-2.45 1.377-3.618.48-1.167-.897-1.368-2.448-.468-3.619.825-1.074 2.45-1.377 3.618-.48zm13.425-17.47c1.168.897 1.368 2.448.468 3.62-.9 1.171-2.45 1.376-3.618.479-1.167-.897-1.367-2.448-.467-3.619.9-1.171 2.45-1.377 3.617-.48zm13.35-17.372c1.168.897 1.368 2.448.468 3.62-.9 1.17-2.45 1.376-3.618.48-1.167-.898-1.367-2.449-.467-3.62.9-1.171 2.45-1.377 3.617-.48zm13.893-13.85a2.58 2.58 0 00-.467-3.62 2.58 2.58 0 00-3.618.48 2.58 2.58 0 00.468 3.62 2.58 2.58 0 003.617-.48zm12.958-21.089c1.167.897 1.368 2.448.468 3.62-.9 1.17-2.45 1.376-3.618.479-1.167-.897-1.368-2.448-.468-3.62.825-1.073 2.45-1.376 3.618-.48zM7.95 173.206c1.166.897 1.367 2.448.467 3.619-.9 1.172-2.45 1.377-3.618.48-1.167-.897-1.368-2.448-.468-3.619.9-1.171 2.45-1.377 3.618-.48zm13.425-17.47c1.167.897 1.367 2.449.467 3.62-.9 1.171-2.45 1.376-3.618.479-1.167-.897-1.367-2.448-.467-3.619.9-1.171 2.45-1.377 3.617-.48zM34.8 138.267c1.167.897 1.367 2.448.468 3.619-.9 1.171-2.451 1.377-3.618.48-1.168-.897-1.368-2.448-.468-3.62.825-1.073 2.45-1.376 3.618-.479zm13.425-17.471c1.167.897 1.368 2.448.468 3.619-.9 1.171-2.45 1.377-3.618.48-1.167-.897-1.368-2.448-.468-3.619.9-1.171 2.45-1.377 3.618-.48zm13.35-17.372c1.167.897 1.368 2.448.468 3.619-.9 1.171-2.45 1.377-3.618.48-1.167-.897-1.368-2.448-.468-3.619.9-1.172 2.45-1.377 3.618-.48zM75 85.954c1.168.897 1.368 2.448.468 3.62-.9 1.17-2.45 1.376-3.618.48-1.167-.898-1.367-2.449-.467-3.62.9-1.171 2.45-1.377 3.617-.48zm13.426-17.47c1.167.898 1.367 2.449.467 3.62-.9 1.17-2.45 1.377-3.617.48-1.168-.898-1.368-2.449-.468-3.62.825-1.073 2.45-1.377 3.618-.48zM8.996 201.642c1.167.897 1.367 2.448.467 3.619-.9 1.171-2.45 1.377-3.618.48-1.167-.897-1.367-2.448-.467-3.62.825-1.073 2.548-1.302 3.618-.479zm13.35-17.372c1.167.897 1.367 2.448.467 3.619-.9 1.171-2.45 1.377-3.617.48-1.168-.897-1.368-2.449-.468-3.62.9-1.171 2.548-1.302 3.618-.479zM35.77 166.8c1.168.897 1.369 2.448.469 3.619-.9 1.171-2.45 1.377-3.618.48-1.167-.897-1.368-2.448-.468-3.619.9-1.172 2.548-1.302 3.618-.48zm13.426-17.471c1.168.897 1.368 2.448.468 3.619-.9 1.172-2.45 1.377-3.618.48-1.167-.897-1.368-2.448-.468-3.619.825-1.074 2.548-1.302 3.618-.48zm13.425-17.47c1.168.897 1.368 2.449.468 3.62-.9 1.171-2.45 1.377-3.617.479-1.168-.897-1.368-2.448-.468-3.619.9-1.171 2.547-1.302 3.617-.48zm13.351-17.372c1.167.897 1.367 2.449.467 3.62-.9 1.171-2.45 1.376-3.617.479-1.168-.897-1.368-2.448-.468-3.619.9-1.171 2.548-1.302 3.618-.48zm13.425-17.469c1.167.897 1.368 2.448.468 3.619-.9 1.171-2.45 1.377-3.618.48-1.167-.897-1.368-2.449-.468-3.62.9-1.17 2.548-1.302 3.618-.48zm13.425-17.47c1.167.897 1.368 2.448.468 3.62-.9 1.17-2.451 1.376-3.618.479-1.167-.897-1.368-2.448-.468-3.62.825-1.073 2.548-1.301 3.618-.48z" fill="#FFCF2D"/></svg>