<svg width="85" height="23" fill="none" xmlns="http://www.w3.org/2000/svg"><rect width="85" height="23" rx="4" fill="#fff"/><g clip-path="url(#clip0_18270_1126)" fill-rule="evenodd" clip-rule="evenodd" fill="#424551"><path d="M12.133 7.767a3.867 3.867 0 017.734 0v3.2a3.867 3.867 0 01-7.734 0v-3.2zM16 5.234a2.533 2.533 0 00-2.533 2.533v3.2a2.533 2.533 0 005.066 0v-3.2c0-1.4-1.134-2.533-2.533-2.533z"/><path d="M10.667 9.234c.368 0 .666.298.666.666v1.067a4.667 4.667 0 009.334 0V9.9A.667.667 0 1122 9.9v1.067a6 6 0 01-12 0V9.9c0-.368.299-.666.667-.666z"/><path d="M16 16.167c.368 0 .667.298.667.667v.933h1.466a.667.667 0 110 1.333h-4.266a.667.667 0 010-1.333h1.466v-.933c0-.369.299-.667.667-.667z"/></g><path d="M32.242 12.17a3.09 3.09 0 001.022-.154c.299-.103.548-.245.749-.427.205-.187.36-.408.462-.665a2.26 2.26 0 00.154-.847c0-.64-.198-1.139-.595-1.498-.392-.36-.99-.539-1.792-.539h-1.61v4.13h1.61zm0-5.201c.635 0 1.185.075 1.652.224.471.145.861.352 1.169.623.308.27.537.597.686.98.154.383.231.81.231 1.281 0 .467-.082.894-.245 1.281a2.738 2.738 0 01-.721 1.001c-.313.28-.702.5-1.169.658-.462.154-.996.231-1.603.231h-1.61V17h-1.351V6.969h2.961zm7.773 2.828c.518 0 .985.086 1.4.259.415.173.77.418 1.064.735.294.317.518.702.672 1.155.159.448.238.95.238 1.505 0 .56-.08 1.064-.238 1.512a3.19 3.19 0 01-.672 1.148 3.001 3.001 0 01-1.064.735 3.705 3.705 0 01-1.4.252c-.523 0-.994-.084-1.414-.252a3 3 0 01-1.064-.735c-.294-.317-.52-.7-.679-1.148a4.634 4.634 0 01-.23-1.512c0-.555.076-1.057.23-1.505a3.26 3.26 0 01.68-1.155 3 3 0 011.063-.735 3.68 3.68 0 011.414-.259zm0 6.328c.7 0 1.223-.233 1.568-.7.345-.471.518-1.127.518-1.967 0-.845-.173-1.503-.518-1.974-.345-.471-.868-.707-1.568-.707-.355 0-.665.06-.93.182a1.748 1.748 0 00-.659.525 2.409 2.409 0 00-.392.847 4.598 4.598 0 00-.126 1.127c0 .84.173 1.496.518 1.967.35.467.88.7 1.59.7zm9.574-4.529c-.233-.313-.485-.53-.756-.651a2.13 2.13 0 00-.91-.189c-.658 0-1.164.236-1.519.707-.354.471-.532 1.143-.532 2.016 0 .462.04.859.12 1.19.079.327.195.597.35.812.153.21.342.364.566.462.224.098.479.147.763.147.411 0 .768-.093 1.071-.28.308-.187.59-.45.847-.791v-3.423zm1.246-4.907V17h-.742c-.177 0-.289-.086-.336-.259l-.112-.861a3.86 3.86 0 01-1.036.882c-.387.224-.835.336-1.344.336-.406 0-.774-.077-1.106-.231a2.328 2.328 0 01-.847-.693c-.233-.303-.413-.681-.539-1.134a5.838 5.838 0 01-.189-1.561c0-.523.07-1.008.21-1.456a3.59 3.59 0 01.602-1.176c.262-.331.581-.59.96-.777a2.84 2.84 0 011.287-.287c.434 0 .805.075 1.113.224.313.145.59.348.833.609V6.689h1.246zm6.903 4.48a.557.557 0 01-.112.119.251.251 0 01-.154.042.426.426 0 01-.23-.084 3.191 3.191 0 00-.316-.196 2.228 2.228 0 00-.455-.189 2.052 2.052 0 00-.658-.091c-.35 0-.658.063-.924.189-.266.121-.49.299-.672.532a2.508 2.508 0 00-.406.847 4.305 4.305 0 00-.133 1.113c0 .43.05.812.147 1.148.098.331.236.611.413.84.182.224.4.397.651.518.257.117.544.175.861.175.304 0 .553-.035.75-.105a2.21 2.21 0 00.482-.245 4.19 4.19 0 00.322-.238.407.407 0 01.26-.112c.102 0 .181.04.237.119l.35.455a2.483 2.483 0 01-.525.49c-.196.135-.408.25-.637.343-.224.089-.46.154-.707.196a4.502 4.502 0 01-.756.063c-.443 0-.856-.082-1.239-.245a2.845 2.845 0 01-.987-.707 3.371 3.371 0 01-.658-1.148 4.662 4.662 0 01-.238-1.547c0-.527.073-1.015.217-1.463.15-.448.364-.833.644-1.155a2.947 2.947 0 011.043-.763c.416-.182.892-.273 1.428-.273.5 0 .938.082 1.316.245.383.159.721.385 1.015.679l-.329.448zm5.594 2.639c-.574.019-1.064.065-1.47.14-.401.07-.73.163-.987.28-.252.117-.436.254-.553.413a.901.901 0 00-.168.532c0 .187.03.348.091.483.06.135.142.247.245.336.107.084.231.147.371.189.145.037.299.056.462.056.22 0 .42-.021.602-.063a2.32 2.32 0 00.511-.196c.163-.084.317-.184.462-.301.15-.117.294-.25.434-.399v-1.47zm-4.025-2.898a4.05 4.05 0 011.267-.847c.453-.187.954-.28 1.505-.28.397 0 .749.065 1.057.196.308.13.567.313.777.546.21.233.369.516.476.847.107.331.161.695.161 1.092V17h-.553a.571.571 0 01-.28-.056c-.065-.042-.117-.121-.154-.238l-.14-.672a7.582 7.582 0 01-.546.462c-.177.13-.364.243-.56.336a3.016 3.016 0 01-.63.203c-.22.051-.464.077-.735.077a2.62 2.62 0 01-.777-.112 1.877 1.877 0 01-.637-.35 1.694 1.694 0 01-.427-.581 2.108 2.108 0 01-.154-.84c0-.28.077-.548.231-.805.154-.261.404-.492.749-.693.345-.2.796-.364 1.351-.49.555-.13 1.237-.205 2.044-.224v-.553c0-.55-.119-.966-.357-1.246-.238-.285-.586-.427-1.043-.427-.308 0-.567.04-.777.119a2.758 2.758 0 00-.539.259c-.15.093-.28.18-.392.259a.561.561 0 01-.322.112.372.372 0 01-.217-.063.662.662 0 01-.154-.168l-.224-.399zm11.27.168a.276.276 0 01-.258.154.488.488 0 01-.238-.077 4.194 4.194 0 00-.33-.168 2.508 2.508 0 00-.454-.175 2.101 2.101 0 00-.63-.084c-.21 0-.4.028-.567.084a1.353 1.353 0 00-.434.217 1.022 1.022 0 00-.273.329.88.88 0 00-.091.399.68.68 0 00.154.455c.107.121.247.226.42.315s.369.168.588.238c.22.065.443.138.672.217.233.075.46.159.679.252.22.093.415.21.588.35.173.14.31.313.413.518.107.2.16.443.16.728 0 .327-.057.63-.174.91a2.03 2.03 0 01-.518.721c-.229.2-.509.36-.84.476a3.45 3.45 0 01-1.148.175c-.495 0-.943-.08-1.344-.238a3.46 3.46 0 01-1.022-.623l.294-.476a.428.428 0 01.133-.14.359.359 0 01.196-.049.47.47 0 01.266.098 6.3 6.3 0 00.336.217 2.236 2.236 0 001.204.315c.243 0 .455-.03.637-.091a1.38 1.38 0 00.455-.259.975.975 0 00.266-.371c.06-.14.09-.29.09-.448a.718.718 0 00-.16-.483 1.24 1.24 0 00-.413-.329 3.039 3.039 0 00-.595-.238l-.68-.217a9.188 9.188 0 01-.678-.252 2.493 2.493 0 01-.588-.364 1.688 1.688 0 01-.42-.532 1.79 1.79 0 01-.154-.777c0-.27.056-.53.168-.777a1.87 1.87 0 01.49-.658 2.38 2.38 0 01.79-.455c.314-.112.67-.168 1.072-.168.467 0 .884.075 1.253.224.373.145.695.345.966.602l-.28.455zm4.105 6.034c-.56 0-.992-.156-1.295-.469-.3-.313-.448-.763-.448-1.351v-4.34h-.854a.289.289 0 01-.19-.063c-.05-.047-.076-.117-.076-.21v-.497l1.162-.147.287-2.191a.297.297 0 01.09-.168.28.28 0 01.197-.07h.63v2.443h2.05v.903h-2.05v4.256c0 .299.072.52.217.665a.758.758 0 00.56.217 1.02 1.02 0 00.588-.168c.07-.042.128-.08.175-.112a.237.237 0 01.133-.056c.065 0 .123.04.175.119l.364.595c-.215.2-.474.36-.777.476a2.688 2.688 0 01-.938.168z" fill="#424551"/><defs><clipPath id="clip0_18270_1126"><path fill="#fff" transform="translate(8 3.5)" d="M0 0h16v16H0z"/></clipPath></defs></svg>