<svg width="73" height="23" fill="none" xmlns="http://www.w3.org/2000/svg"><rect width="73" height="23" rx="4" fill="#fff"/><path fill-rule="evenodd" clip-rule="evenodd" d="M18.712 10.44a1.333 1.333 0 010 2.119l-3.054 2.333c-.877.67-2.143.045-2.143-1.059V9.166c0-1.105 1.266-1.73 2.143-1.06l3.054 2.334zm-.81 1.06l-3.053-2.334v4.667l3.053-2.334z" fill="#424551"/><path fill-rule="evenodd" clip-rule="evenodd" d="M16 5.5a6 6 0 100 12 6 6 0 000-12zm-7.334 6a7.333 7.333 0 1114.667 0 7.333 7.333 0 01-14.666 0z" fill="#424551"/><path d="M37.436 6.969L33.348 17H32.13L28.042 6.969h1.085c.121 0 .22.03.294.091a.56.56 0 01.168.231l2.828 7.077c.06.159.119.331.175.518.06.187.114.383.161.588.047-.205.096-.401.147-.588a5.62 5.62 0 01.168-.518l2.821-7.077a.5.5 0 01.161-.217.455.455 0 01.301-.105h1.085zm2.342 2.94V17h-1.246V9.909h1.246zm.266-2.226a.785.785 0 01-.077.343.951.951 0 01-.196.28.878.878 0 01-.287.189.85.85 0 01-.343.07.85.85 0 01-.616-.259 1.022 1.022 0 01-.19-.28.85.85 0 01-.07-.343.85.85 0 01.07-.343.88.88 0 01.19-.287.848.848 0 01.273-.196.85.85 0 01.343-.07.85.85 0 01.343.07.826.826 0 01.287.196c.084.08.149.175.196.287a.785.785 0 01.077.343zm6.4 3.913c-.232-.313-.484-.53-.755-.651a2.13 2.13 0 00-.91-.189c-.658 0-1.164.236-1.52.707-.354.471-.531 1.143-.531 2.016 0 .462.04.859.119 1.19.08.327.196.597.35.812.154.21.343.364.567.462.224.098.478.147.763.147.41 0 .768-.093 1.07-.28a3.05 3.05 0 00.848-.791v-3.423zm1.247-4.907V17h-.742c-.177 0-.29-.086-.336-.259l-.112-.861a3.86 3.86 0 01-1.036.882c-.387.224-.835.336-1.344.336-.406 0-.775-.077-1.106-.231a2.327 2.327 0 01-.847-.693c-.233-.303-.413-.681-.54-1.134a5.838 5.838 0 01-.188-1.561c0-.523.07-1.008.21-1.456.14-.453.34-.845.602-1.176.261-.331.58-.59.959-.777a2.84 2.84 0 011.288-.287c.434 0 .805.075 1.113.224.313.145.59.348.833.609V6.689h1.246zm6.714 5.992c0-.29-.042-.553-.126-.791a1.679 1.679 0 00-.357-.623 1.507 1.507 0 00-.567-.406 1.886 1.886 0 00-.763-.147c-.597 0-1.071.175-1.421.525-.346.345-.56.826-.644 1.442h3.878zm1.008 3.325a2.42 2.42 0 01-.553.49 3.531 3.531 0 01-.693.336 4.086 4.086 0 01-.756.196 4.41 4.41 0 01-.777.07 3.68 3.68 0 01-1.358-.245 3.075 3.075 0 01-1.071-.728 3.405 3.405 0 01-.7-1.19c-.168-.471-.252-1.013-.252-1.624 0-.495.075-.957.224-1.386.154-.43.373-.8.658-1.113a2.952 2.952 0 011.043-.742c.41-.182.873-.273 1.386-.273.425 0 .816.072 1.176.217.364.14.676.345.938.616.266.266.474.597.623.994.15.392.224.84.224 1.344 0 .196-.021.327-.063.392-.042.065-.122.098-.238.098h-4.74c.015.448.075.838.183 1.169.112.331.266.609.462.833.196.22.43.385.7.497.27.107.574.161.91.161.313 0 .58-.035.805-.105a4.042 4.042 0 00.994-.469.548.548 0 01.287-.112c.102 0 .182.04.238.119l.35.455zm4.631-6.209c.518 0 .985.086 1.4.259.416.173.77.418 1.064.735.294.317.518.702.672 1.155.159.448.238.95.238 1.505a4.5 4.5 0 01-.238 1.512 3.19 3.19 0 01-.672 1.148 3.001 3.001 0 01-1.064.735 3.705 3.705 0 01-1.4.252 3.78 3.78 0 01-1.414-.252 3 3 0 01-1.064-.735c-.294-.317-.52-.7-.679-1.148a4.634 4.634 0 01-.23-1.512c0-.555.076-1.057.23-1.505a3.26 3.26 0 01.68-1.155 3 3 0 011.063-.735c.42-.173.892-.259 1.414-.259zm0 6.328c.7 0 1.223-.233 1.568-.7.346-.471.518-1.127.518-1.967 0-.845-.172-1.503-.518-1.974-.345-.471-.868-.707-1.568-.707-.354 0-.665.06-.93.182a1.755 1.755 0 00-.659.525 2.409 2.409 0 00-.392.847 4.598 4.598 0 00-.126 1.127c0 .84.173 1.496.518 1.967.35.467.88.7 1.59.7z" fill="#424551"/></svg>